<svg width="201" height="25" viewBox="0 0 201 25" fill="none" xmlns="http://www.w3.org/2000/svg">
<path d="M21.5568 8.875H16.5795C16.4886 8.23106 16.303 7.65909 16.0227 7.15909C15.7424 6.65151 15.3826 6.2197 14.9432 5.86364C14.5038 5.50757 13.9962 5.23485 13.4205 5.04545C12.8523 4.85606 12.2348 4.76136 11.5682 4.76136C10.3636 4.76136 9.31439 5.06061 8.42045 5.65909C7.52652 6.25 6.83333 7.11364 6.34091 8.25C5.84849 9.37879 5.60227 10.75 5.60227 12.3636C5.60227 14.0227 5.84849 15.4167 6.34091 16.5455C6.84091 17.6742 7.53788 18.5265 8.43182 19.1023C9.32576 19.678 10.3598 19.9659 11.5341 19.9659C12.1932 19.9659 12.803 19.8788 13.3636 19.7045C13.9318 19.5303 14.4356 19.2765 14.875 18.9432C15.3144 18.6023 15.678 18.1894 15.9659 17.7045C16.2614 17.2197 16.4659 16.6667 16.5795 16.0455L21.5568 16.0682C21.428 17.1364 21.1061 18.1667 20.5909 19.1591C20.0833 20.1439 19.3977 21.0265 18.5341 21.8068C17.678 22.5795 16.6553 23.1932 15.4659 23.6477C14.2841 24.0947 12.947 24.3182 11.4545 24.3182C9.37879 24.3182 7.52273 23.8485 5.88636 22.9091C4.25758 21.9697 2.9697 20.6098 2.02273 18.8295C1.08333 17.0492 0.613636 14.8939 0.613636 12.3636C0.613636 9.82576 1.09091 7.66667 2.04545 5.88636C3 4.10606 4.29545 2.75 5.93182 1.81818C7.56818 0.878787 9.40909 0.40909 11.4545 0.40909C12.803 0.40909 14.053 0.598484 15.2045 0.977272C16.3636 1.35606 17.3902 1.90909 18.2841 2.63636C19.178 3.35606 19.9053 4.23864 20.4659 5.28409C21.0341 6.32954 21.3977 7.52651 21.5568 8.875ZM25.0852 24V0.727272H30.0057V19.9432H39.983V24H25.0852ZM43.2415 24V0.727272H58.9233V4.78409H48.1619V10.3295H58.1165V14.3864H48.1619V19.9432H58.9688V24H43.2415ZM66.8466 24H61.5739L69.608 0.727272H75.9489L83.9716 24H78.6989L72.8693 6.04545H72.6875L66.8466 24ZM66.517 14.8523H78.9716V18.6932H66.517V14.8523ZM106.239 0.727272V24H101.989L91.8636 9.35227H91.6932V24H86.7727V0.727272H91.0909L101.136 15.3636H101.341V0.727272H106.239Z" fill="#2B26AD"/>
<path d="M110.304 24V0.727272H125.713V4.78409H115.224V10.3295H124.69V14.3864H115.224V24H110.304ZM129.023 24V0.727272H133.943V19.9432H143.92V24H129.023ZM167.659 12.3636C167.659 14.9015 167.178 17.0606 166.216 18.8409C165.261 20.6212 163.958 21.9811 162.307 22.9205C160.663 23.8523 158.814 24.3182 156.761 24.3182C154.693 24.3182 152.837 23.8485 151.193 22.9091C149.549 21.9697 148.25 20.6098 147.295 18.8295C146.341 17.0492 145.864 14.8939 145.864 12.3636C145.864 9.82576 146.341 7.66667 147.295 5.88636C148.25 4.10606 149.549 2.75 151.193 1.81818C152.837 0.878787 154.693 0.40909 156.761 0.40909C158.814 0.40909 160.663 0.878787 162.307 1.81818C163.958 2.75 165.261 4.10606 166.216 5.88636C167.178 7.66667 167.659 9.82576 167.659 12.3636ZM162.67 12.3636C162.67 10.7197 162.424 9.33333 161.932 8.20455C161.447 7.07576 160.761 6.2197 159.875 5.63636C158.989 5.05303 157.951 4.76136 156.761 4.76136C155.572 4.76136 154.534 5.05303 153.648 5.63636C152.761 6.2197 152.072 7.07576 151.58 8.20455C151.095 9.33333 150.852 10.7197 150.852 12.3636C150.852 14.0076 151.095 15.3939 151.58 16.5227C152.072 17.6515 152.761 18.5076 153.648 19.0909C154.534 19.6742 155.572 19.9659 156.761 19.9659C157.951 19.9659 158.989 19.6742 159.875 19.0909C160.761 18.5076 161.447 17.6515 161.932 16.5227C162.424 15.3939 162.67 14.0076 162.67 12.3636ZM175.668 24L169.009 0.727272H174.384L178.236 16.8977H178.429L182.679 0.727272H187.281L191.52 16.9318H191.724L195.577 0.727272H200.952L194.293 24H189.497L185.065 8.78409H184.884L180.463 24H175.668Z" fill="#FFBF40"/>
</svg>
